<svg width="800" height="800" viewBox="0 0 800 800" fill="none" xmlns="http://www.w3.org/2000/svg">
<g clip-path="url(#clip0_203_5)">
<path d="M5.38244 237.952C-3.02153 275.901 20.9281 313.475 58.8783 321.88L300.458 375.379C300.614 352.17 303.17 328.63 308.388 305.055L5.38244 237.952Z" fill="#05232E"/>
<path d="M428.634 331.681L634.768 377.33L377.099 320.269C354.708 421.383 393.584 521.779 469.008 582.741C499.735 607.575 536.514 625.877 577.706 634.999L589.118 583.466C475.456 558.296 403.462 445.346 428.634 331.681Z" fill="#05232E"/>
<path d="M428.633 331.681C403.463 445.344 475.457 558.294 589.12 583.466L634.769 377.332L428.633 331.681Z" fill="#F6D76F"/>
<path d="M475.291 39.2594L385.149 30.2768L460.993 79.813L475.291 39.2594Z" fill="#FBB071"/>
<path d="M452.611 54L388 117.495L474.61 90.9463L452.611 54Z" fill="#FBB071"/>
<path d="M4.94385 779.388C32.4282 806.872 76.986 806.872 104.472 779.388L279.433 604.427C259.945 591.82 241.469 577.012 224.394 559.941L4.94385 779.388Z" fill="#05232E"/>
<path d="M697.147 87.1844C667.536 57.5735 633.748 34.6891 597.683 18.5188C597.678 18.5422 597.684 45.8938 597.684 45.8938C597.684 89.6954 576.991 128.727 544.892 153.803V285.27C581.655 282.719 619.28 295.459 647.384 323.564C698.916 375.095 698.916 458.647 647.384 510.178C617.551 540.011 582.35 561.189 544.892 573.752V647.12C600.68 632.702 653.456 603.633 697.148 559.942C827.692 429.392 827.692 217.733 697.147 87.1844Z" fill="#325763"/>
<path d="M274.156 510.177L460.77 323.562C484.198 300.136 514.245 287.397 544.891 285.269V153.802C521.661 171.952 492.469 182.808 460.77 182.808V323.561L278.642 505.687L224.391 559.939C241.466 577.012 259.944 591.82 279.43 604.425C359.067 655.945 455.8 670.194 544.888 647.122V573.747C452.942 604.586 347.386 583.408 274.156 510.177Z" fill="#6B8F9C"/>
<path d="M460.771 323.563L610.061 472.853L647.383 510.175C698.914 458.642 698.914 375.092 647.383 323.561C619.278 295.456 581.653 282.719 544.891 285.267C514.244 287.395 484.197 300.134 460.771 323.563Z" fill="#F72349"/>
<path d="M311.478 472.853L460.769 323.563L274.155 510.177C347.386 583.406 452.942 604.586 544.889 573.75C582.347 561.188 617.549 540.009 647.381 510.177L610.059 472.855C527.742 555.173 393.799 555.173 311.478 472.853Z" fill="#05232E"/>
<path d="M311.478 472.853C393.797 555.172 527.741 555.172 610.061 472.853L460.77 323.562L311.478 472.853Z" fill="#F6D76F"/>
<path d="M597.681 45.8922L597.676 18.5406C580.517 10.8484 562.862 4.65469 544.889 0L544.9 45.9047C544.9 92.3641 507.237 130.025 460.779 130.025V42.0547L544.889 0L460.769 42.0609C460.779 42.0578 460.779 130.028 460.779 130.028C460.769 130.023 460.769 182.809 460.769 182.809C492.469 182.809 521.661 171.953 544.889 153.803C576.987 128.723 597.681 89.6953 597.681 45.8922Z" fill="#05232E"/>
<path d="M460.778 42.0547V130.025C507.238 130.025 544.899 92.3625 544.899 45.9047L544.889 0L460.778 42.0547Z" fill="#F72349"/>
<path d="M791.478 266.73C786.453 237.193 767.356 158.692 697 87C784.289 297.587 782.144 415.118 766.059 461.235C801.892 377.373 796.261 294.843 791.478 266.73Z" fill="#F6D76F"/>
<path d="M758.31 477C758.973 476.086 759.631 475.085 760.282 473.996M760.282 473.996C762.318 469.744 764.242 465.488 766.059 461.235M760.282 473.996C762.311 470.605 764.271 466.361 766.059 461.235M766.059 461.235C782.144 415.118 784.289 297.587 697 87C767.356 158.692 786.453 237.193 791.478 266.73C796.261 294.843 801.892 377.373 766.059 461.235Z" stroke="#F6D76F"/>
<path d="M224 560.5C232.667 568.833 251.3 586.1 256.5 588.5L37 798C27 797.6 11.5 785.5 5 779.5L224 560.5Z" fill="#F6D76F" stroke="#F6D76F"/>
<path d="M307.704 305.024C305.336 316.811 300.79 341.805 301.562 347.48L6.91703 274.988C1.87939 266.34 3.75176 246.766 5.31765 238.059L307.704 305.024Z" fill="#F6D76F" stroke="#F6D76F"/>
<path d="M300.5 375C300.5 350.2 308.5 305.5 308.5 305.5L377 320.5C377 320.5 369.7 368.2 370.5 389L300.5 375Z" fill="#6B8F9C" stroke="#6B8F9C"/>
<path d="M331.5 453C308.7 427.4 301 390.667 300 375.5L371 389.5C371.167 394.833 371.8 406.5 373 410.5L331.5 453Z" fill="#6B8F9C" stroke="#6B8F9C"/>
<path d="M765 368.395C756.075 280.403 726.927 191.468 713.469 158L697 163.045C721.65 196.951 743.75 321.809 751.719 380L765 371.423V368.395Z" fill="#F72349" stroke="#F72349"/>
<path d="M583.391 629.079L581.554 606.152L576.73 608.545L574.219 614.765L567.002 612.334L564.949 618.016L559.267 615.963L552.27 622.543L561.064 638.392L566.307 634.962L567.72 621.305L573.085 631.911L577.409 617.018L578.567 631.472L583.391 629.079Z" fill="#F72349" stroke="#F72349"/>
<path d="M589 627L587 604.5L590.5 602.5L592.5 609L594.5 601L600 602.5L594.5 612.5L603.5 616L600 621L592.5 616L594.5 625L589 627Z" fill="#F72349" stroke="#F72349"/>
<path d="M609.5 618L603 598.5L605.5 595.5L613 611L620 606L622.5 611L609.5 618Z" fill="#F72349" stroke="#F72349"/>
</g>
<defs>
<clipPath id="clip0_203_5">
<rect width="800" height="800" fill="white"/>
</clipPath>
</defs>
</svg>
